<svg width="40" height="40" viewBox="0 0 40 40" fill="none" xmlns="http://www.w3.org/2000/svg">
    <rect width="40" height="40" rx="8" fill="#131320" />
    <g clip-path="url(#clip0_116_684)">
        <g filter="url(#filter0_d_116_684)">
            <path
                d="M20.2198 26.8381C23.875 26.8381 26.8381 23.875 26.8381 20.2198C26.8381 16.5646 23.875 13.6015 20.2198 13.6015C16.5646 13.6015 13.6015 16.5646 13.6015 20.2198C13.6015 23.875 16.5646 26.8381 20.2198 26.8381Z"
                fill="#007AFF" />
        </g>
        <g filter="url(#filter1_f_116_684)">
            <path fill-rule="evenodd" clip-rule="evenodd"
                d="M18.5018 8.51015L18.3451 8.36599L18.3257 8.15346L18.8731 8.10303L18.5018 8.51015ZM9.0145 16.9468C9.03411 16.9507 9.0549 16.9546 9.07682 16.9584C9.24565 16.9875 9.48315 17.0105 9.76208 16.9874C10.324 16.9409 11.0463 16.7073 11.7034 15.979C12.3192 15.2965 14.0185 13.4296 15.5644 11.7327C16.3373 10.8844 17.0716 10.0787 17.6127 9.48519C17.8833 9.1884 18.1056 8.94464 18.2602 8.77508L18.5017 8.51022C18.5018 8.51018 18.5018 8.51015 18.3451 8.36599C18.3257 8.15346 18.3256 8.15347 18.3255 8.15348L18.3252 8.15351L18.3243 8.1536L18.3214 8.15388C18.319 8.15412 18.3156 8.15446 18.3113 8.15492C18.3027 8.15583 18.2904 8.1572 18.2745 8.15912C18.2427 8.16297 18.1965 8.16904 18.137 8.17808C18.0181 8.19616 17.8461 8.22616 17.6299 8.27417C17.1978 8.37017 16.5888 8.53831 15.8753 8.82751C14.4481 9.40599 12.6016 10.4694 10.9184 12.4088C9.44228 14.1095 8.74018 16.0891 8.40621 17.6365C8.23903 18.4112 8.16347 19.0804 8.12969 19.5567C8.1128 19.795 8.10634 19.9852 8.10412 20.1166C8.10301 20.1823 8.10297 20.2333 8.10321 20.2683C8.10333 20.2858 8.10352 20.2992 8.10368 20.3085C8.10377 20.3132 8.10384 20.3168 8.1039 20.3193L8.10398 20.3223L8.10401 20.3235C8.10401 20.3236 8.10402 20.3237 8.3164 20.3175L8.10401 20.3237L8.12113 20.9195L8.48439 20.4482L8.48449 20.448L8.48495 20.4474L8.48695 20.4449C8.48877 20.4425 8.49155 20.4389 8.49526 20.4342C8.50267 20.4247 8.51379 20.4105 8.52837 20.3921C8.55752 20.3554 8.60046 20.3017 8.65511 20.235C8.76447 20.1015 8.92045 19.9158 9.10653 19.7079C9.48075 19.2896 9.96868 18.7902 10.4399 18.4403C10.6405 18.2914 10.8845 18.1943 11.3236 18.1714C11.7716 18.148 12.4084 18.2025 13.3838 18.3516C13.9927 18.4447 14.6863 18.3761 15.2879 18.221C15.881 18.0681 16.4277 17.8198 16.7137 17.52C17.6932 16.4934 19.6286 14.3785 21.3172 12.5222C22.162 11.5937 22.9456 10.7292 23.518 10.0969C23.8042 9.7807 24.0376 9.52256 24.1995 9.34345C24.2639 9.27219 24.317 9.21345 24.3576 9.16854C24.8585 9.35385 25.5599 9.73676 26.2234 10.1435C26.8166 10.5071 27.3606 10.878 27.6811 11.1226L27.5648 11.2506C27.3927 11.4399 27.1462 11.7112 26.8484 12.039C26.2528 12.6946 25.452 13.5763 24.6313 14.4808C22.991 16.2884 21.2681 18.1898 20.9479 18.5543C20.7924 18.7314 20.4508 18.9396 20.0136 19.0765C19.5813 19.2118 19.0886 19.2667 18.6452 19.1699C18.2822 19.0906 17.9761 19.0002 17.691 18.916C17.599 18.8888 17.5092 18.8623 17.4204 18.837C17.0607 18.7345 16.7186 18.6528 16.3479 18.6528C15.5928 18.6528 14.8169 18.9898 13.9806 19.9182C13.578 20.3651 12.3788 21.6657 11.2787 22.8561C10.729 23.4509 10.2045 24.0178 9.81741 24.4359C9.62388 24.645 9.4647 24.8169 9.35391 24.9365L9.18077 25.1234C9.18074 25.1234 9.18073 25.1234 9.33626 25.2688L9.18077 25.1234L9.09901 25.2116L9.13196 25.3275C9.20439 25.5821 9.3802 25.9182 9.60355 26.2776C9.82999 26.6419 10.1159 27.0467 10.422 27.4431C11.0295 28.23 11.7353 29.0081 12.2284 29.3684L12.3799 29.4791L12.5082 29.3419C13.0017 28.8143 14.0769 27.6247 15.2555 26.3208C15.654 25.8799 16.0643 25.426 16.4679 24.9802C17.2673 24.0973 18.041 23.2455 18.6465 22.5879C18.9493 22.2591 19.2096 21.9795 19.4097 21.769C19.614 21.5541 19.7461 21.4216 19.7985 21.3778C20.2654 20.987 20.8493 20.7897 21.5197 20.8293C21.7499 20.8429 22.0747 20.8824 22.4346 20.9262C22.6288 20.9498 22.8334 20.9747 23.0388 20.9974C23.327 21.0293 23.614 21.0564 23.8653 21.0676C24.1112 21.0786 24.3427 21.0755 24.5104 21.038C25.0631 20.9147 26.1003 20.6438 26.7866 19.9086C27.099 19.5738 27.8996 18.6863 28.7576 17.7352C29.535 16.8735 30.3594 15.9595 30.9108 15.3569C31.3198 16.2672 31.8873 18.07 31.9412 19.8505C31.7092 20.0968 31.5149 20.308 31.346 20.4916C30.9469 20.9255 30.6891 21.2057 30.4083 21.4314C30.0274 21.7374 29.3284 22.0134 28.508 21.8172L28.4238 21.7971C28.0014 21.696 27.5461 21.5871 27.1607 21.5017C26.9552 21.4561 26.7677 21.4168 26.6145 21.3887C26.4674 21.3618 26.3349 21.3419 26.2491 21.3419H26.2458C25.9811 21.3419 24.9713 21.3418 24.1866 22.13C23.8207 22.4976 22.1046 24.3927 20.302 26.3844L20.1348 26.5691C18.379 28.5092 16.5725 30.5053 15.8536 31.2687L15.6221 31.5144L15.9426 31.6184C18.7394 32.526 20.9338 32.4719 22.4228 32.1797C24.7072 31.7313 30.0756 29.9659 31.9353 23.4065L31.9941 23.1989L31.7868 23.1422C31.2743 23.0018 30.7348 23.041 30.2707 23.1731C29.8097 23.3043 29.3994 23.5339 29.153 23.8004C28.6004 24.3982 26.7305 26.4273 24.9989 28.3069C24.1331 29.2467 23.3018 30.1491 22.6869 30.8166L21.7259 31.8601C20.3997 32.0296 18.6047 31.9824 16.3948 31.3131C17.225 30.4188 18.8576 28.6149 20.4448 26.8612L20.6164 26.6716C22.4258 24.6724 24.1306 22.7899 24.4871 22.4319C25.1439 21.7721 25.9987 21.7688 26.2491 21.7688C26.2908 21.7688 26.3867 21.7809 26.5384 21.8086C26.684 21.8353 26.8656 21.8733 27.0691 21.9185C27.4509 22.0031 27.9029 22.1113 28.3264 22.2126L28.4096 22.2325C29.374 22.4631 30.2048 22.1415 30.6738 21.7647C30.9806 21.5181 31.27 21.2035 31.6857 20.7517C31.8661 20.5556 32.0702 20.3337 32.3099 20.0803L32.3701 20.0167L32.3683 19.9289C32.325 17.8431 31.5924 15.7193 31.154 14.8826L31.0141 14.6157L30.8101 14.837C30.2657 15.4276 29.3201 16.4759 28.4378 17.454C27.585 18.3995 26.7914 19.2793 26.4765 19.6166C25.8879 20.2473 24.9704 20.4981 24.4182 20.6214C24.3097 20.6456 24.127 20.652 23.8841 20.6412C23.6468 20.6306 23.3707 20.6047 23.0853 20.5731C22.8943 20.552 22.6975 20.5281 22.5065 20.5049C22.1362 20.4599 21.7875 20.4176 21.5447 20.4032C20.7703 20.3575 20.0793 20.5871 19.5264 21.0499C19.4513 21.1128 19.3005 21.2658 19.1024 21.4742C18.8999 21.6871 18.6379 21.9687 18.3345 22.2981C17.7277 22.9571 16.9529 23.81 16.1535 24.6931C15.7483 25.1406 15.3369 25.5958 14.9377 26.0374C13.8569 27.2331 12.8658 28.3296 12.3308 28.9074C11.8947 28.5441 11.2975 27.8806 10.7578 27.1815C10.4583 26.7936 10.1811 26.4008 9.96402 26.0515C9.78247 25.7594 9.64986 25.5086 9.57804 25.3211L9.66504 25.2272C9.77585 25.1076 9.93505 24.9356 10.1286 24.7265C10.5157 24.3084 11.0403 23.7414 11.5902 23.1464C12.6892 21.9572 13.8909 20.654 14.2957 20.2046C15.0742 19.3403 15.7431 19.0797 16.3479 19.0797C16.6571 19.0797 16.9523 19.1473 17.3045 19.2476C17.3868 19.2711 17.4724 19.2964 17.5617 19.3228C17.8494 19.4078 18.1755 19.5041 18.5549 19.587C19.089 19.7036 19.6586 19.6347 20.14 19.484C20.6163 19.3349 21.0397 19.095 21.2666 18.8367C21.5838 18.4756 23.303 16.5781 24.9454 14.7683C25.766 13.864 26.5668 12.9823 27.1623 12.3267C27.4601 11.9989 27.7066 11.7277 27.8786 11.5383L28.148 11.242L28.1482 11.2417C28.1483 11.2417 28.1483 11.2417 27.9914 11.0978L28.1483 11.2417L28.2971 11.078L28.1286 10.9348C27.8397 10.6893 27.1698 10.2236 26.4448 9.77913C25.7221 9.3361 24.9168 8.89689 24.3591 8.71762L24.2288 8.67574L24.1369 8.77753L24.2944 8.92088C24.1369 8.77753 24.1369 8.77755 24.1369 8.7776L24.1367 8.77782L24.0716 8.84989C24.0288 8.89726 23.9658 8.96703 23.8849 9.05654C23.7231 9.23558 23.4897 9.49364 23.2036 9.80972C22.6313 10.4419 21.848 11.3061 21.0035 12.2343C19.3139 14.0916 17.3822 16.2024 16.4069 17.2246C16.2043 17.437 15.7523 17.6606 15.1822 17.8076C14.6205 17.9524 13.9862 18.0119 13.4477 17.9296C12.4684 17.7799 11.7954 17.7193 11.3016 17.7451C10.799 17.7714 10.4693 17.8877 10.1873 18.097C9.68121 18.4728 9.17053 18.9978 8.79047 19.4225C8.70173 19.5217 8.61968 19.6159 8.54598 19.7021C8.54822 19.6652 8.55074 19.6268 8.55357 19.587C8.58619 19.127 8.65936 18.4783 8.82151 17.727C8.87547 17.4769 8.93922 17.2159 9.0145 16.9468ZM9.13693 16.5356C9.1408 16.5363 9.14471 16.537 9.14867 16.5377C9.2895 16.562 9.49054 16.5816 9.72718 16.562C10.1964 16.5232 10.8133 16.33 11.3885 15.6924C12.0051 15.0089 13.7054 13.141 15.2509 11.4446C16.0238 10.5962 16.7582 9.7905 17.2993 9.19692C17.4797 8.99904 17.6387 8.82474 17.7704 8.68027C17.7544 8.68372 17.7382 8.68727 17.7217 8.69094C17.3093 8.78256 16.7231 8.94413 16.0343 9.22333C14.6569 9.78164 12.87 10.8097 11.2387 12.6893C10.1782 13.9112 9.5311 15.2885 9.13693 16.5356ZM22.4086 31.7473C24.6377 31.2959 29.6307 29.5981 31.4627 23.5082C31.1021 23.4504 30.7262 23.4871 30.3865 23.5838C29.9763 23.7005 29.643 23.8977 29.4644 24.0909C28.9121 24.6883 27.0425 26.7171 25.3108 28.5968C24.445 29.5366 23.6137 30.439 22.9989 31.1065L22.4086 31.7473Z"
                fill="white" fill-opacity="0.5" />
        </g>
        <path fill-rule="evenodd" clip-rule="evenodd"
            d="M18.5018 8.51015L18.3451 8.36599L18.3257 8.15346L18.8731 8.10303L18.5018 8.51015ZM9.0145 16.9468C9.03411 16.9507 9.0549 16.9546 9.07682 16.9584C9.24565 16.9875 9.48315 17.0105 9.76208 16.9874C10.324 16.9409 11.0463 16.7073 11.7034 15.979C12.3192 15.2965 14.0185 13.4296 15.5644 11.7327C16.3373 10.8844 17.0716 10.0787 17.6127 9.48519C17.8833 9.1884 18.1056 8.94464 18.2602 8.77508L18.5017 8.51022C18.5017 8.51022 18.5018 8.51015 18.3451 8.36599C18.3257 8.15346 18.3255 8.15348 18.3255 8.15348L18.3252 8.15351L18.3243 8.1536L18.3214 8.15388C18.319 8.15412 18.3156 8.15446 18.3113 8.15492C18.3027 8.15583 18.2904 8.1572 18.2745 8.15912C18.2427 8.16297 18.1965 8.16904 18.137 8.17808C18.0181 8.19616 17.8461 8.22616 17.6299 8.27417C17.1978 8.37017 16.5888 8.53831 15.8753 8.82751C14.4481 9.40599 12.6016 10.4694 10.9184 12.4088C9.44227 14.1095 8.74018 16.0891 8.40621 17.6365C8.23903 18.4112 8.16347 19.0804 8.12969 19.5567C8.1128 19.795 8.10634 19.9852 8.10412 20.1166C8.10301 20.1823 8.10297 20.2333 8.10321 20.2683C8.10333 20.2858 8.10352 20.2992 8.10368 20.3085C8.10377 20.3132 8.10384 20.3168 8.1039 20.3193L8.10398 20.3223L8.10401 20.3235C8.10401 20.3235 8.10402 20.3237 8.3164 20.3175L8.10401 20.3237L8.12113 20.9195L8.48439 20.4482L8.48449 20.448L8.48495 20.4474L8.48695 20.4449C8.48877 20.4425 8.49155 20.4389 8.49526 20.4342C8.50267 20.4247 8.51379 20.4105 8.52837 20.3921C8.55752 20.3554 8.60046 20.3017 8.65511 20.235C8.76447 20.1015 8.92045 19.9158 9.10653 19.7078C9.48075 19.2896 9.96869 18.7902 10.4399 18.4403C10.6405 18.2914 10.8845 18.1943 11.3236 18.1714C11.7716 18.148 12.4084 18.2025 13.3838 18.3516C13.9927 18.4447 14.6863 18.3761 15.2879 18.221C15.881 18.0681 16.4277 17.8198 16.7137 17.52C17.6932 16.4934 19.6286 14.3785 21.3172 12.5222C22.162 11.5937 22.9456 10.7292 23.518 10.0969C23.8042 9.7807 24.0376 9.52256 24.1995 9.34345C24.2639 9.27219 24.317 9.21345 24.3576 9.16854C24.8585 9.35385 25.5599 9.73676 26.2234 10.1435C26.8166 10.5071 27.3606 10.878 27.6811 11.1226L27.5648 11.2506C27.3927 11.4399 27.1462 11.7112 26.8484 12.039C26.2528 12.6946 25.452 13.5763 24.6313 14.4808C22.991 16.2884 21.2681 18.1898 20.9479 18.5543C20.7924 18.7314 20.4508 18.9396 20.0136 19.0765C19.5813 19.2118 19.0886 19.2667 18.6452 19.1699C18.2822 19.0906 17.9761 19.0002 17.691 18.916C17.599 18.8888 17.5092 18.8623 17.4204 18.837C17.0607 18.7345 16.7186 18.6528 16.3479 18.6528C15.5928 18.6528 14.8169 18.9898 13.9806 19.9182C13.578 20.3651 12.3788 21.6657 11.2787 22.8561C10.729 23.4509 10.2045 24.0178 9.81741 24.4359C9.62388 24.645 9.4647 24.8169 9.35391 24.9365L9.18077 25.1234C9.18077 25.1234 9.18073 25.1234 9.33626 25.2688L9.18077 25.1234L9.09901 25.2116L9.13196 25.3275C9.20439 25.5821 9.3802 25.9182 9.60355 26.2776C9.82999 26.6419 10.1159 27.0467 10.422 27.4431C11.0295 28.23 11.7353 29.0081 12.2284 29.3684L12.3799 29.4791L12.5082 29.3419C13.0017 28.8143 14.0769 27.6247 15.2555 26.3208C15.654 25.8799 16.0643 25.426 16.4679 24.9802C17.2673 24.0972 18.041 23.2455 18.6465 22.5879C18.9493 22.2591 19.2096 21.9795 19.4097 21.769C19.614 21.5541 19.7461 21.4216 19.7985 21.3778C20.2654 20.987 20.8493 20.7897 21.5197 20.8293C21.7499 20.8429 22.0747 20.8824 22.4346 20.9262C22.6288 20.9498 22.8334 20.9747 23.0388 20.9974C23.327 21.0293 23.614 21.0564 23.8653 21.0676C24.1112 21.0786 24.3427 21.0755 24.5104 21.038C25.0631 20.9147 26.1003 20.6438 26.7866 19.9086C27.099 19.5738 27.8996 18.6863 28.7576 17.7352C29.535 16.8735 30.3594 15.9595 30.9108 15.3569C31.3198 16.2672 31.8873 18.07 31.9412 19.8505C31.7092 20.0968 31.5149 20.308 31.346 20.4916C30.9469 20.9255 30.6891 21.2057 30.4083 21.4314C30.0274 21.7374 29.3284 22.0134 28.508 21.8172L28.4238 21.7971C28.0014 21.696 27.5461 21.5871 27.1607 21.5017C26.9552 21.4561 26.7677 21.4168 26.6145 21.3887C26.4674 21.3618 26.3349 21.3419 26.2491 21.3419H26.2458C25.9811 21.3419 24.9713 21.3418 24.1866 22.13C23.8207 22.4976 22.1046 24.3927 20.302 26.3844L20.1348 26.5691C18.379 28.5092 16.5725 30.5053 15.8536 31.2687L15.6221 31.5144L15.9426 31.6184C18.7394 32.526 20.9338 32.4719 22.4228 32.1797C24.7072 31.7313 30.0756 29.9659 31.9353 23.4065L31.9941 23.1989L31.7868 23.1422C31.2743 23.0018 30.7348 23.041 30.2707 23.1731C29.8097 23.3042 29.3994 23.5339 29.153 23.8004C28.6004 24.3982 26.7305 26.4273 24.9989 28.3069C24.1331 29.2467 23.3018 30.1491 22.6869 30.8166L21.7259 31.8601C20.3997 32.0296 18.6047 31.9824 16.3948 31.3131C17.225 30.4188 18.8576 28.6149 20.4448 26.8612L20.6164 26.6716C22.4258 24.6724 24.1306 22.7899 24.4871 22.4319C25.1439 21.7721 25.9987 21.7687 26.2491 21.7687C26.2908 21.7687 26.3867 21.7809 26.5384 21.8086C26.684 21.8353 26.8656 21.8733 27.0691 21.9185C27.4509 22.0031 27.9029 22.1113 28.3264 22.2126L28.4096 22.2325C29.374 22.4631 30.2048 22.1415 30.6738 21.7647C30.9806 21.5181 31.27 21.2035 31.6857 20.7517C31.8661 20.5556 32.0702 20.3337 32.3099 20.0803L32.3701 20.0167L32.3683 19.9289C32.325 17.8431 31.5924 15.7193 31.154 14.8826L31.0141 14.6156L30.8101 14.837C30.2657 15.4276 29.3201 16.4759 28.4378 17.454C27.585 18.3995 26.7914 19.2793 26.4766 19.6166C25.8879 20.2473 24.9704 20.4981 24.4182 20.6214C24.3097 20.6456 24.127 20.652 23.8841 20.6412C23.6468 20.6306 23.3707 20.6047 23.0853 20.5731C22.8943 20.552 22.6975 20.5281 22.5065 20.5049C22.1362 20.4599 21.7875 20.4176 21.5447 20.4032C20.7703 20.3575 20.0793 20.5871 19.5264 21.0499C19.4513 21.1128 19.3005 21.2658 19.1024 21.4742C18.8999 21.6871 18.6379 21.9687 18.3345 22.2981C17.7277 22.9571 16.9529 23.81 16.1535 24.6931C15.7483 25.1406 15.3369 25.5958 14.9377 26.0374C13.8569 27.2331 12.8658 28.3296 12.3308 28.9074C11.8947 28.5441 11.2975 27.8806 10.7578 27.1815C10.4583 26.7936 10.1811 26.4008 9.96402 26.0515C9.78247 25.7594 9.64986 25.5086 9.57804 25.3211L9.66504 25.2272C9.77585 25.1076 9.93505 24.9356 10.1286 24.7265C10.5157 24.3084 11.0403 23.7414 11.5902 23.1464C12.6892 21.9572 14.2957 20.2046 14.2957 20.2046C14.2957 20.2046 15.7431 19.0797 16.3479 19.0797C16.6571 19.0797 16.9523 19.1473 17.3045 19.2476C17.3868 19.2711 17.4724 19.2964 17.5617 19.3228C17.8494 19.4078 18.1755 19.5041 18.5549 19.587C19.089 19.7036 19.6586 19.6347 20.14 19.484C20.6163 19.3349 21.0397 19.095 21.2666 18.8367C21.5838 18.4756 23.303 16.5781 24.9454 14.7683C25.766 13.864 26.5668 12.9823 27.1623 12.3267C27.4601 11.9989 27.7066 11.7277 27.8786 11.5383L28.148 11.242L28.1482 11.2417C28.1482 11.2417 28.1483 11.2417 27.9914 11.0978L28.1483 11.2417L28.2971 11.078L28.1286 10.9348C27.8397 10.6893 27.1698 10.2236 26.4448 9.77913C25.7221 9.3361 24.9168 8.89689 24.3591 8.71762L24.2288 8.67574L24.1369 8.77753L24.2944 8.92088C24.1369 8.77753 24.1369 8.7776 24.1369 8.7776L24.1367 8.77782L24.0716 8.84989C24.0288 8.89726 23.9658 8.96703 23.8849 9.05654C23.7231 9.23558 23.4897 9.49364 23.2036 9.80972C22.6313 10.4419 21.848 11.3061 21.0035 12.2343C19.3139 14.0916 17.3822 16.2024 16.4069 17.2246C16.2043 17.437 15.7523 17.6606 15.1822 17.8076C14.6205 17.9524 13.9862 18.0119 13.4477 17.9296C12.4684 17.7799 11.7954 17.7193 11.3016 17.7451C10.799 17.7714 10.4693 17.8877 10.1873 18.097C9.68121 18.4728 9.17053 18.9978 8.79047 19.4225C8.70173 19.5217 8.61968 19.6159 8.54598 19.7021C8.54822 19.6652 8.55074 19.6268 8.55357 19.587C8.58619 19.127 8.65936 18.4783 8.82151 17.727C8.87547 17.4769 8.93922 17.2159 9.0145 16.9468ZM9.13693 16.5356C9.1408 16.5363 9.14471 16.537 9.14867 16.5377C9.2895 16.562 9.49054 16.5816 9.72718 16.562C10.1964 16.5232 10.8133 16.33 11.3885 15.6924C12.0051 15.0089 13.7054 13.141 15.2509 11.4446C16.0238 10.5962 16.7582 9.7905 17.2993 9.19692C17.4797 8.99904 17.6387 8.82474 17.7704 8.68027C17.7544 8.68372 17.7382 8.68727 17.7217 8.69094C17.3093 8.78256 16.7231 8.94413 16.0343 9.22333C14.6569 9.78164 12.87 10.8097 11.2387 12.6893C10.1782 13.9112 9.5311 15.2885 9.13693 16.5356ZM22.4086 31.7473C24.6377 31.2959 29.6307 29.5981 31.4627 23.5082C31.1021 23.4504 30.7262 23.4871 30.3865 23.5838C29.9763 23.7005 29.643 23.8977 29.4644 24.0909C28.9121 24.6883 27.0425 26.7171 25.3108 28.5968C24.445 29.5366 23.6137 30.439 22.9989 31.1065L22.4086 31.7473Z"
            fill="white" />
    </g>
    <defs>
        <filter id="filter0_d_116_684" x="4.14682" y="4.14682" width="32.1459" height="32.1459"
            filterUnits="userSpaceOnUse" color-interpolation-filters="sRGB">
            <feFlood flood-opacity="0" result="BackgroundImageFix" />
            <feColorMatrix in="SourceAlpha" type="matrix" values="0 0 0 0 0 0 0 0 0 0 0 0 0 0 0 0 0 0 127 0"
                result="hardAlpha" />
            <feOffset />
            <feGaussianBlur stdDeviation="4.72734" />
            <feComposite in2="hardAlpha" operator="out" />
            <feColorMatrix type="matrix" values="0 0 0 0 0 0 0 0 0 0.478431 0 0 0 0 1 0 0 0 1 0" />
            <feBlend mode="normal" in2="BackgroundImageFix" result="effect1_dropShadow_116_684" />
            <feBlend mode="normal" in="SourceGraphic" in2="effect1_dropShadow_116_684" result="shape" />
        </filter>
        <filter id="filter1_f_116_684" x="7.00004" y="6.99998" width="26.4731" height="26.4731"
            filterUnits="userSpaceOnUse" color-interpolation-filters="sRGB">
            <feFlood flood-opacity="0" result="BackgroundImageFix" />
            <feBlend mode="normal" in="SourceGraphic" in2="BackgroundImageFix" result="shape" />
            <feGaussianBlur stdDeviation="0.551523" result="effect1_foregroundBlur_116_684" />
        </filter>
        <clipPath id="clip0_116_684">
            <rect width="26.4731" height="26.4731" fill="white" transform="translate(7 7)" />
        </clipPath>
    </defs>
</svg>