<svg width="500" height="500" viewBox="0 0 500 500" fill="none" xmlns="http://www.w3.org/2000/svg">
<rect width="500" height="500" rx="100" fill="#131320"/>
<g clip-path="url(#clip0_116_694)">
<g filter="url(#filter0_d_116_694)">
<path d="M252.748 335.476C298.438 335.476 335.476 298.437 335.476 252.747C335.476 207.057 298.438 170.019 252.748 170.019C207.058 170.019 170.019 207.057 170.019 252.747C170.019 298.437 207.058 335.476 252.748 335.476Z" fill="#007AFF"/>
</g>
<g filter="url(#filter1_f_116_694)">
<path fill-rule="evenodd" clip-rule="evenodd" d="M231.273 106.377L229.315 104.575L229.072 101.918L235.914 101.288L231.273 106.377ZM112.682 211.835C112.927 211.884 113.187 211.933 113.461 211.98C115.571 212.344 118.54 212.631 122.027 212.343C129.051 211.761 138.08 208.841 146.293 199.737C153.99 191.207 175.232 167.87 194.556 146.659C204.217 136.055 213.396 125.984 220.16 118.565C223.542 114.855 226.32 111.808 228.253 109.689L231.272 106.378C231.273 106.377 231.273 106.377 229.315 104.575C229.072 101.918 229.071 101.918 229.069 101.919L229.065 101.919L229.054 101.92L229.018 101.924C228.988 101.926 228.946 101.931 228.892 101.936C228.785 101.948 228.631 101.965 228.432 101.989C228.034 102.037 227.457 102.113 226.714 102.226C225.227 102.452 223.077 102.827 220.375 103.427C214.973 104.627 207.36 106.729 198.442 110.344C180.602 117.575 157.521 130.868 136.481 155.11C118.029 176.369 109.253 201.114 105.078 220.457C102.989 230.14 102.044 238.504 101.622 244.459C101.411 247.437 101.33 249.815 101.302 251.458C101.288 252.279 101.288 252.917 101.291 253.354C101.292 253.572 101.295 253.74 101.297 253.856C101.298 253.914 101.299 253.959 101.3 253.991L101.3 254.028L101.301 254.043C101.301 254.045 101.301 254.046 103.956 253.969L101.301 254.046L101.515 261.493L106.056 255.602L106.057 255.6L106.063 255.593L106.088 255.561C106.11 255.531 106.145 255.487 106.191 255.427C106.284 255.309 106.423 255.132 106.605 254.902C106.97 254.442 107.506 253.772 108.19 252.937C109.557 251.268 111.506 248.948 113.832 246.348C118.51 241.12 124.609 234.877 130.5 230.504C133.007 228.642 136.057 227.429 141.546 227.142C147.145 226.85 155.105 227.531 167.298 229.395C174.909 230.558 183.579 229.702 191.099 227.763C198.514 225.851 205.347 222.748 208.922 219C221.166 206.167 245.358 179.731 266.466 156.528C277.025 144.921 286.82 134.115 293.976 126.211C297.553 122.259 300.471 119.032 302.495 116.793C303.3 115.902 303.963 115.168 304.47 114.607C310.732 116.923 319.5 121.71 327.793 126.793C335.208 131.339 342.008 135.975 346.015 139.033L344.561 140.632C342.41 142.999 339.329 146.39 335.606 150.488C328.161 158.683 318.151 169.704 307.892 181.009C287.388 203.605 265.852 227.372 261.85 231.929C259.906 234.142 255.636 236.745 250.17 238.457C244.767 240.148 238.608 240.834 233.066 239.624C228.528 238.633 224.702 237.503 221.138 236.45C219.988 236.11 218.866 235.779 217.756 235.462C213.26 234.182 208.983 233.16 204.349 233.16C194.911 233.16 185.212 237.372 174.758 248.978C169.726 254.564 154.735 270.821 140.985 285.701C134.113 293.136 127.557 300.222 122.718 305.449C120.299 308.062 118.309 310.211 116.925 311.706L114.76 314.042C114.76 314.043 114.76 314.043 116.704 315.86L114.76 314.042L113.738 315.145L114.15 316.593C115.056 319.776 117.253 323.977 120.045 328.469C122.876 333.023 126.449 338.084 130.275 343.039C137.869 352.875 146.691 362.601 152.856 367.104L154.75 368.488L156.354 366.773C162.521 360.179 175.962 345.309 190.695 329.01C195.676 323.499 200.804 317.826 205.849 312.253C215.842 301.216 225.513 290.569 233.082 282.349C236.867 278.239 240.12 274.743 242.621 272.113C245.176 269.426 246.827 267.771 247.482 267.223C253.318 262.337 260.616 259.871 268.997 260.367C271.874 260.537 275.934 261.03 280.433 261.577C282.861 261.873 285.418 262.183 287.985 262.467C291.588 262.866 295.175 263.205 298.317 263.345C301.39 263.482 304.285 263.443 306.381 262.975C313.29 261.433 326.255 258.048 334.833 248.857C338.738 244.673 348.746 233.579 359.471 221.69C369.188 210.919 379.494 199.494 386.386 191.961C391.498 203.34 398.592 225.875 399.266 248.132C396.365 251.21 393.937 253.85 391.825 256.145C386.837 261.568 383.615 265.071 380.105 267.892C375.343 271.718 366.606 275.168 356.351 272.715L355.299 272.464C350.018 271.2 344.327 269.839 339.51 268.771C336.941 268.201 334.597 267.709 332.682 267.359C330.844 267.022 329.187 266.774 328.114 266.774H328.074C324.765 266.774 312.142 266.773 302.333 276.626C297.759 281.22 276.309 304.909 253.776 329.806L251.686 332.114C229.738 356.365 207.157 381.316 198.17 390.858L195.277 393.93L199.283 395.23C234.244 406.575 261.674 405.899 280.286 402.246C308.841 396.641 375.946 374.574 399.191 292.581L399.927 289.987L397.336 289.277C390.929 287.522 384.185 288.013 378.384 289.664C372.623 291.303 367.493 294.173 364.413 297.505C357.506 304.977 334.132 330.342 312.487 353.836C301.664 365.583 291.273 376.864 283.587 385.208L271.574 398.251C254.997 400.37 232.559 399.78 204.935 391.414C215.313 380.235 235.721 357.686 255.561 335.765L257.706 333.395C280.324 308.404 301.633 284.874 306.089 280.398C314.3 272.151 324.985 272.109 328.114 272.109C328.635 272.109 329.834 272.261 331.73 272.608C333.55 272.941 335.821 273.417 338.365 273.981C343.137 275.039 348.787 276.391 354.08 277.657L355.121 277.906C367.176 280.789 377.561 276.769 383.423 272.058C387.259 268.976 390.876 265.044 396.072 259.396C398.327 256.946 400.879 254.172 403.874 251.004L404.627 250.208L404.604 249.111C404.063 223.038 394.906 196.491 389.426 186.033L387.678 182.696L385.127 185.463C378.321 192.845 366.502 205.949 355.474 218.175C344.813 229.994 334.893 240.992 330.958 245.208C323.6 253.091 312.131 256.226 305.229 257.767C303.872 258.07 301.588 258.15 298.552 258.015C295.585 257.882 292.134 257.558 288.566 257.164C286.179 256.9 283.72 256.601 281.333 256.311C276.703 255.749 272.344 255.22 269.309 255.04C259.63 254.468 250.992 257.339 244.081 263.124C243.142 263.91 241.257 265.822 238.78 268.428C236.25 271.089 232.975 274.608 229.183 278.726C221.597 286.964 211.913 297.625 201.919 308.663C196.854 314.258 191.712 319.947 186.722 325.468C173.212 340.414 160.823 354.12 154.136 361.342C148.684 356.802 141.22 348.508 134.473 339.769C130.729 334.92 127.265 330.01 124.551 325.644C122.282 321.993 120.624 318.858 119.726 316.514L120.814 315.34C122.199 313.845 124.189 311.696 126.608 309.082C131.447 303.854 138.005 296.768 144.878 289.331C158.615 274.465 173.636 258.176 178.697 252.557C188.428 241.754 196.789 238.496 204.349 238.496C208.214 238.496 211.905 239.342 216.306 240.595C217.336 240.889 218.406 241.205 219.522 241.535C223.118 242.597 227.194 243.802 231.937 244.837C238.613 246.295 245.733 245.434 251.75 243.55C257.705 241.687 262.997 238.688 265.833 235.459C269.798 230.945 291.288 207.227 311.818 184.604C322.076 173.3 332.085 162.279 339.53 154.084C343.252 149.987 346.333 146.596 348.484 144.229L351.851 140.525L351.853 140.522C351.854 140.521 351.854 140.521 349.893 138.722L351.854 140.521L353.714 138.475L351.609 136.686C347.997 133.616 339.623 127.795 330.56 122.239C321.527 116.701 311.461 111.211 304.49 108.97L302.861 108.447L301.713 109.719L303.68 111.511C301.713 109.719 301.712 109.719 301.712 109.72L301.709 109.723L300.896 110.624C300.361 111.216 299.573 112.088 298.562 113.207C296.539 115.445 293.622 118.671 290.046 122.622C282.892 130.524 273.1 141.326 262.545 152.929C241.424 176.145 217.278 202.53 205.087 215.308C202.555 217.963 196.905 220.757 189.778 222.595C182.757 224.405 174.828 225.149 168.097 224.12C155.855 222.249 147.443 221.492 141.27 221.814C134.988 222.142 130.867 223.596 127.343 226.213C121.016 230.91 114.632 237.472 109.882 242.782C108.772 244.021 107.747 245.199 106.825 246.277C106.854 245.815 106.885 245.335 106.92 244.838C107.328 239.087 108.243 230.979 110.27 221.587C110.944 218.462 111.741 215.198 112.682 211.835ZM114.212 206.696C114.261 206.704 114.31 206.713 114.359 206.721C116.119 207.025 118.632 207.27 121.59 207.025C127.456 206.54 135.167 204.125 142.357 196.155C150.065 187.612 171.318 164.263 190.637 143.057C200.298 132.452 209.478 122.381 216.243 114.961C218.498 112.488 220.484 110.309 222.131 108.503C221.931 108.546 221.728 108.591 221.522 108.637C216.367 109.782 209.04 111.802 200.43 115.292C183.212 122.27 160.876 135.121 140.485 158.616C127.228 173.89 119.139 191.107 114.212 206.696ZM280.108 396.842C307.972 391.199 370.384 369.976 393.284 293.852C388.777 293.13 384.078 293.589 379.832 294.797C374.704 296.256 370.538 298.721 368.306 301.136C361.402 308.603 338.033 333.963 316.386 357.46C305.563 369.207 295.172 380.488 287.486 388.831L280.108 396.842Z" fill="white" fill-opacity="0.5"/>
</g>
<path fill-rule="evenodd" clip-rule="evenodd" d="M231.273 106.377L229.315 104.575L229.072 101.918L235.914 101.288L231.273 106.377ZM112.682 211.835C112.927 211.884 113.187 211.933 113.461 211.98C115.571 212.344 118.54 212.631 122.027 212.343C129.051 211.761 138.08 208.841 146.293 199.737C153.99 191.207 175.232 167.87 194.556 146.659C204.217 136.055 213.396 125.984 220.16 118.565C223.542 114.855 226.32 111.808 228.253 109.689L231.272 106.378C231.272 106.378 231.273 106.377 229.315 104.575C229.072 101.918 229.069 101.919 229.069 101.919L229.065 101.919L229.054 101.92L229.018 101.924C228.988 101.926 228.946 101.931 228.892 101.936C228.785 101.948 228.631 101.965 228.432 101.989C228.034 102.037 227.457 102.113 226.714 102.226C225.227 102.452 223.077 102.827 220.375 103.427C214.973 104.627 207.36 106.729 198.442 110.344C180.602 117.575 157.521 130.868 136.481 155.11C118.029 176.369 109.253 201.114 105.078 220.457C102.989 230.14 102.044 238.504 101.622 244.459C101.411 247.437 101.33 249.815 101.302 251.458C101.288 252.279 101.288 252.917 101.291 253.354C101.292 253.572 101.295 253.74 101.297 253.856C101.298 253.914 101.299 253.959 101.3 253.991L101.3 254.028L101.301 254.043C101.301 254.043 101.301 254.046 103.956 253.969L101.301 254.046L101.515 261.493L106.056 255.602L106.057 255.6L106.063 255.593L106.088 255.561C106.11 255.531 106.145 255.487 106.191 255.427C106.284 255.309 106.423 255.132 106.605 254.902C106.97 254.442 107.506 253.772 108.19 252.937C109.557 251.268 111.506 248.948 113.832 246.348C118.51 241.12 124.609 234.877 130.5 230.504C133.007 228.642 136.057 227.429 141.546 227.142C147.145 226.85 155.105 227.531 167.298 229.395C174.909 230.558 183.579 229.702 191.099 227.763C198.514 225.851 205.347 222.748 208.922 219C221.166 206.167 245.358 179.731 266.466 156.528C277.025 144.921 286.82 134.115 293.976 126.211C297.553 122.259 300.471 119.032 302.495 116.793C303.3 115.902 303.963 115.168 304.47 114.607C310.732 116.923 319.5 121.71 327.793 126.793C335.208 131.339 342.008 135.975 346.015 139.033L344.561 140.632C342.41 142.999 339.329 146.39 335.606 150.488C328.161 158.683 318.151 169.704 307.892 181.009C287.388 203.605 265.852 227.372 261.85 231.929C259.906 234.142 255.636 236.746 250.17 238.457C244.767 240.148 238.608 240.834 233.066 239.624C228.528 238.633 224.702 237.503 221.138 236.45C219.988 236.11 218.866 235.779 217.756 235.462C213.26 234.182 208.983 233.16 204.349 233.16C194.911 233.16 185.212 237.372 174.758 248.978C169.726 254.564 154.735 270.821 140.985 285.701C134.113 293.136 127.557 300.222 122.718 305.449C120.299 308.062 118.309 310.211 116.925 311.706L114.76 314.042C114.76 314.042 114.76 314.043 116.704 315.86L114.76 314.042L113.738 315.145L114.15 316.593C115.056 319.776 117.253 323.977 120.045 328.469C122.876 333.023 126.449 338.084 130.275 343.039C137.869 352.875 146.691 362.601 152.856 367.104L154.75 368.488L156.354 366.773C162.521 360.179 175.962 345.309 190.695 329.01C195.676 323.499 200.804 317.826 205.849 312.253C215.842 301.216 225.513 290.569 233.082 282.349C236.867 278.239 240.12 274.743 242.621 272.113C245.176 269.426 246.827 267.771 247.482 267.223C253.318 262.337 260.616 259.871 268.997 260.367C271.874 260.537 275.934 261.03 280.433 261.577C282.861 261.873 285.418 262.183 287.985 262.467C291.588 262.866 295.175 263.205 298.317 263.345C301.39 263.482 304.285 263.443 306.381 262.976C313.29 261.433 326.255 258.048 334.833 248.857C338.738 244.673 348.746 233.579 359.471 221.69C369.188 210.919 379.494 199.494 386.386 191.961C391.498 203.34 398.592 225.875 399.266 248.132C396.365 251.21 393.937 253.85 391.825 256.145C386.837 261.568 383.615 265.071 380.105 267.892C375.343 271.718 366.606 275.168 356.351 272.715L355.299 272.464C350.018 271.2 344.327 269.839 339.51 268.771C336.941 268.201 334.597 267.709 332.682 267.359C330.844 267.022 329.187 266.774 328.115 266.774H328.074C324.765 266.774 312.142 266.773 302.333 276.626C297.759 281.22 276.309 304.909 253.776 329.806L251.686 332.114C229.738 356.365 207.157 381.316 198.17 390.858L195.277 393.93L199.283 395.23C234.244 406.575 261.674 405.899 280.286 402.246C308.841 396.641 375.946 374.574 399.191 292.581L399.927 289.987L397.336 289.277C390.929 287.522 384.185 288.013 378.384 289.664C372.623 291.303 367.493 294.173 364.413 297.505C357.506 304.977 334.132 330.342 312.487 353.836C301.664 365.583 291.273 376.864 283.587 385.208L271.574 398.251C254.997 400.37 232.559 399.78 204.935 391.414C215.313 380.235 235.721 357.686 255.561 335.765L257.706 333.395C280.324 308.404 301.633 284.874 306.089 280.398C314.3 272.151 324.985 272.109 328.115 272.109C328.635 272.109 329.834 272.261 331.73 272.608C333.55 272.941 335.821 273.417 338.365 273.981C343.137 275.039 348.787 276.391 354.08 277.657L355.121 277.906C367.176 280.789 377.561 276.769 383.423 272.058C387.259 268.976 390.876 265.044 396.072 259.396C398.327 256.946 400.879 254.172 403.874 251.004L404.627 250.208L404.604 249.111C404.063 223.039 394.906 196.491 389.426 186.033L387.678 182.696L385.127 185.463C378.321 192.845 366.502 205.949 355.474 218.175C344.813 229.994 334.893 240.992 330.958 245.208C323.6 253.091 312.131 256.226 305.229 257.767C303.872 258.07 301.588 258.15 298.552 258.015C295.585 257.882 292.134 257.558 288.566 257.164C286.179 256.9 283.72 256.601 281.333 256.311C276.703 255.749 272.344 255.22 269.309 255.04C259.63 254.468 250.992 257.339 244.081 263.124C243.142 263.91 241.257 265.822 238.78 268.428C236.25 271.089 232.975 274.608 229.183 278.726C221.597 286.964 211.913 297.625 201.919 308.663C196.854 314.258 191.712 319.947 186.722 325.468C173.212 340.414 160.823 354.12 154.136 361.342C148.684 356.802 141.22 348.508 134.473 339.769C130.729 334.92 127.265 330.01 124.551 325.644C122.282 321.993 120.624 318.858 119.726 316.514L120.814 315.34C122.199 313.845 124.189 311.696 126.608 309.082C131.447 303.854 138.005 296.768 144.878 289.331C158.615 274.465 178.697 252.557 178.697 252.557C178.697 252.557 196.789 238.496 204.349 238.496C208.214 238.496 211.905 239.342 216.306 240.595C217.336 240.889 218.406 241.205 219.522 241.535C223.118 242.597 227.194 243.802 231.938 244.837C238.613 246.295 245.733 245.434 251.75 243.55C257.705 241.687 262.997 238.688 265.833 235.459C269.798 230.945 291.288 207.227 311.818 184.604C322.076 173.3 332.085 162.279 339.53 154.084C343.252 149.987 346.333 146.596 348.484 144.229L351.851 140.525L351.853 140.522C351.853 140.522 351.854 140.521 349.893 138.722L351.854 140.521L353.714 138.475L351.609 136.686C347.997 133.616 339.623 127.795 330.56 122.239C321.527 116.701 311.461 111.211 304.49 108.97L302.861 108.447L301.713 109.719L303.68 111.511C301.713 109.719 301.712 109.72 301.712 109.72L301.709 109.723L300.896 110.624C300.361 111.216 299.573 112.088 298.562 113.207C296.539 115.445 293.622 118.671 290.046 122.622C282.892 130.524 273.1 141.326 262.545 152.929C241.424 176.145 217.278 202.53 205.087 215.308C202.555 217.963 196.905 220.757 189.778 222.595C182.757 224.405 174.828 225.149 168.097 224.12C155.855 222.249 147.443 221.492 141.27 221.814C134.988 222.142 130.867 223.596 127.343 226.213C121.016 230.91 114.632 237.472 109.882 242.782C108.772 244.021 107.747 245.199 106.825 246.277C106.854 245.815 106.885 245.335 106.92 244.838C107.328 239.087 108.243 230.979 110.27 221.587C110.944 218.462 111.741 215.198 112.682 211.835ZM114.212 206.696C114.261 206.704 114.31 206.713 114.359 206.721C116.119 207.025 118.632 207.27 121.59 207.025C127.456 206.54 135.167 204.125 142.357 196.155C150.065 187.612 171.318 164.263 190.637 143.057C200.298 132.452 209.478 122.381 216.243 114.961C218.498 112.488 220.484 110.309 222.131 108.503C221.931 108.546 221.728 108.591 221.522 108.637C216.367 109.782 209.04 111.802 200.43 115.292C183.212 122.27 160.876 135.121 140.485 158.616C127.228 173.89 119.139 191.107 114.212 206.696ZM280.108 396.842C307.972 391.199 370.384 369.976 393.284 293.852C388.777 293.13 384.078 293.589 379.832 294.797C374.704 296.256 370.538 298.721 368.306 301.136C361.402 308.603 338.033 333.963 316.386 357.46C305.563 369.207 295.172 380.488 287.486 388.831L280.108 396.842Z" fill="white"/>
</g>
<defs>
<filter id="filter0_d_116_694" x="51.8359" y="51.8352" width="401.824" height="401.824" filterUnits="userSpaceOnUse" color-interpolation-filters="sRGB">
<feFlood flood-opacity="0" result="BackgroundImageFix"/>
<feColorMatrix in="SourceAlpha" type="matrix" values="0 0 0 0 0 0 0 0 0 0 0 0 0 0 0 0 0 0 127 0" result="hardAlpha"/>
<feOffset/>
<feGaussianBlur stdDeviation="59.0917"/>
<feComposite in2="hardAlpha" operator="out"/>
<feColorMatrix type="matrix" values="0 0 0 0 0 0 0 0 0 0.478431 0 0 0 0 1 0 0 0 1 0"/>
<feBlend mode="normal" in2="BackgroundImageFix" result="effect1_dropShadow_116_694"/>
<feBlend mode="normal" in="SourceGraphic" in2="effect1_dropShadow_116_694" result="shape"/>
</filter>
<filter id="filter1_f_116_694" x="87.5012" y="87.4998" width="330.914" height="330.914" filterUnits="userSpaceOnUse" color-interpolation-filters="sRGB">
<feFlood flood-opacity="0" result="BackgroundImageFix"/>
<feBlend mode="normal" in="SourceGraphic" in2="BackgroundImageFix" result="shape"/>
<feGaussianBlur stdDeviation="6.89404" result="effect1_foregroundBlur_116_694"/>
</filter>
<clipPath id="clip0_116_694">
<rect width="330.914" height="330.914" fill="white" transform="translate(87.4999 87.4999)"/>
</clipPath>
</defs>
</svg>
