<svg xmlns:xlink="http://www.w3.org/1999/xlink" id="Ebene_1" data-name="Ebene 1" xmlns="http://www.w3.org/2000/svg" viewBox="0 0 303.47 288.73" width="303.47"  height="288.73" ><defs><style>.cls-1{fill:#e77a3a;}.cls-2{fill:#ffaa3a;}.cls-3{fill:#6c3a1f;}</style></defs><path class="cls-1" d="M358.84,306.27A136.07,136.07,0,1,1,210.73,170.73c4-.35-3.51,30.87,33.25,36.49-9.7,18.89,1,84.25,71.49,71.49,3.58,17.36,25.53,25,42.91,16.29C358.69,298.72,358.84,302.47,358.84,306.27Z" transform="translate(-86.71 -153.6)"/><path class="cls-2" d="M366,299.12A136.07,136.07,0,1,1,217.87,163.58c4-.35-3.5,30.87,33.26,36.49-9.7,18.89,1,84.25,71.49,71.49,3.58,17.36,25.53,25,42.91,16.29Q366,293.43,366,299.12Z" transform="translate(-86.71 -153.6)"/><circle class="cls-3" cx="126.15" cy="129.74" r="26.04"/><circle class="cls-3" cx="210.98" cy="187.38" r="19.91"/><circle class="cls-3" cx="61.58" cy="170.4" r="14.62"/><circle class="cls-3" cx="76.96" cy="69.32" r="7.53"/><circle class="cls-3" cx="118.73" cy="224.71" r="7.41"/><circle class="cls-1" cx="202.62" cy="19.59" r="17.62"/><circle class="cls-2" cx="205.13" cy="17.06" r="17.06"/><circle class="cls-1" cx="288.36" cy="80.26" r="13.64"/><circle class="cls-2" cx="290.28" cy="78.55" r="13.19"/><circle class="cls-1" cx="208.79" cy="75.35" r="11.07"/><circle class="cls-2" cx="209.91" cy="74.61" r="10.33"/></svg>