<svg width="192" height="161" viewBox="0 0 192 161" fill="none" xmlns="http://www.w3.org/2000/svg">
<g clip-path="url(#clip0_1_104)">
<path d="M95.7332 33.1116C100.041 33.1116 103.534 29.6192 103.534 25.3111C103.534 21.003 100.041 17.5106 95.7332 17.5106C91.4251 17.5106 87.9327 21.003 87.9327 25.3111C87.9327 29.6192 91.4251 33.1116 95.7332 33.1116Z" fill="#4F617A"/>
<path d="M130.008 43.9848C131.444 43.9848 132.608 42.8207 132.608 41.3846C132.608 39.9486 131.444 38.7845 130.008 38.7845C128.572 38.7845 127.408 39.9486 127.408 41.3846C127.408 42.8207 128.572 43.9848 130.008 43.9848Z" fill="#3F3D56"/>
<path d="M156.01 69.7501C157.446 69.7501 158.61 68.586 158.61 67.15C158.61 65.7139 157.446 64.5498 156.01 64.5498C154.574 64.5498 153.41 65.7139 153.41 67.15C153.41 68.586 154.574 69.7501 156.01 69.7501Z" fill="#3F3D56"/>
<path d="M133.6 66.2003C135.036 66.2003 136.2 65.0362 136.2 63.6002C136.2 62.1641 135.036 61 133.6 61C132.164 61 131 62.1641 131 63.6002C131 65.0362 132.164 66.2003 133.6 66.2003Z" fill="#3F3D56"/>
<path d="M95.7332 160.047C148.605 160.047 191.466 157.93 191.466 155.319C191.466 152.708 148.605 150.591 95.7332 150.591C42.8612 150.591 0 152.708 0 155.319C0 157.93 42.8612 160.047 95.7332 160.047Z" fill="#242C37"/>
<path d="M151.735 78.5329C150.649 76.7419 146.856 76.7882 146.856 76.7882C143.403 81.9189 135.102 76.4688 135.102 76.4688C128.937 79.2271 125.175 70.4372 125.175 70.4372C116.88 69.1967 118.161 60.4841 118.161 60.4841C114.034 59.6555 115.192 52.1934 115.192 52.1934C115.192 52.1934 117.482 50.3151 116.355 48.941C115.639 48.0674 115.594 45.5603 115.657 43.8488C110.271 42.2109 104.672 41.3805 99.0426 41.3847C67.5806 41.3847 42.0755 66.8897 42.0755 98.3518C42.0755 129.814 67.5806 155.319 99.0426 155.319C130.505 155.319 156.01 129.814 156.01 98.3518C156.017 91.5167 154.79 84.7364 152.39 78.3366C152.098 78.6666 151.871 78.7573 151.735 78.5329Z" fill="#3F3D56"/>
<path opacity="0.1" d="M151.735 78.5329C150.649 76.7419 146.856 76.7882 146.856 76.7882C143.403 81.9189 135.102 76.4688 135.102 76.4688C128.937 79.2271 125.175 70.4372 125.175 70.4372C116.88 69.1967 118.161 60.4841 118.161 60.4841C114.034 59.6555 115.192 52.1934 115.192 52.1934C115.192 52.1934 117.482 50.3151 116.355 48.941C115.639 48.0674 115.594 45.5603 115.657 43.8488C110.271 42.2109 104.672 41.3805 99.0426 41.3847C67.5806 41.3847 42.0755 66.8897 42.0755 98.3518C42.0755 129.814 67.5806 155.319 99.0426 155.319C130.505 155.319 156.01 129.814 156.01 98.3518C156.017 91.5167 154.79 84.7364 152.39 78.3366C152.098 78.6666 151.871 78.7573 151.735 78.5329Z" fill="black"/>
<path d="M148.359 78.3079C147.326 76.6047 143.719 76.6486 143.719 76.6486C140.435 81.5282 132.54 76.3449 132.54 76.3449C126.677 78.9682 123.099 70.6085 123.099 70.6085C115.21 69.4288 116.429 61.1427 116.429 61.1427C112.503 60.3546 113.605 53.2578 113.605 53.2578C113.605 53.2578 115.783 51.4714 114.711 50.1646C114.03 49.3338 113.987 46.9494 114.047 45.3217C108.925 43.7639 103.6 42.9742 98.2459 42.9782C68.3239 42.9782 44.0673 67.2347 44.0673 97.1567C44.0673 127.079 68.3239 151.335 98.2459 151.335C128.168 151.335 152.424 127.079 152.424 97.1567C152.431 90.6562 151.265 84.2078 148.982 78.1213C148.704 78.4351 148.488 78.5214 148.359 78.3079Z" fill="#3F3D56"/>
<path d="M91.7766 75.0066C91.7766 75.0066 82.4338 69.0612 73.5157 75.0066C70.3943 77.0875 68.8337 80.0528 68.1235 83.0285C66.861 88.3193 68.2456 93.8971 71.6218 98.1618L91.7971 123.646C92.4889 124.534 93.4167 125.209 94.4742 125.595C95.5318 125.98 96.6764 126.06 97.7773 125.826C97.821 125.816 97.8649 125.806 97.9092 125.795C98.7064 125.599 99.455 125.241 100.109 124.745C100.763 124.248 101.308 123.623 101.711 122.908L115.742 98.2682C118.338 93.781 119.402 88.5705 118.773 83.4249C118.115 78.3575 115.682 73.0159 108.763 71.1845C108.763 71.1845 100.695 67.7872 91.7766 75.0066Z" fill="#007AFF"/>
<path opacity="0.1" d="M91.7766 75.0066C91.7766 75.0066 82.4338 69.0612 73.5157 75.0066C70.3943 77.0875 68.8337 80.0528 68.1235 83.0285C66.861 88.3193 68.2456 93.8971 71.6218 98.1618L91.7971 123.646C92.4889 124.534 93.4167 125.209 94.4742 125.595C95.5318 125.98 96.6764 126.06 97.7773 125.826C97.821 125.816 97.8649 125.806 97.9092 125.795C98.7064 125.599 99.455 125.241 100.109 124.745C100.763 124.248 101.308 123.623 101.711 122.908L115.742 98.2682C118.338 93.781 119.402 88.5705 118.773 83.4249C118.115 78.3575 115.682 73.0159 108.763 71.1845C108.763 71.1845 100.695 67.7872 91.7766 75.0066Z" fill="black"/>
<path d="M91.8716 76.4414C91.8716 76.4414 83.1074 70.8642 74.7416 76.4414C71.8136 78.3935 70.3496 81.1751 69.6834 83.9665C68.4991 88.9296 69.7979 94.162 72.9651 98.1626L91.8908 122.069C92.5398 122.902 93.4101 123.535 94.4022 123.897C95.3942 124.258 96.468 124.333 97.5007 124.113C97.5416 124.104 97.5829 124.094 97.6244 124.084C98.3722 123.9 99.0745 123.565 99.6879 123.099C100.301 122.634 100.813 122.047 101.191 121.376L114.353 98.2624C116.788 94.0531 117.786 89.1653 117.197 84.3384C116.579 79.5848 114.297 74.5741 107.806 72.8561C107.806 72.8561 100.237 69.6691 91.8716 76.4414Z" fill="#007AFF"/>
<path opacity="0.1" d="M92.2131 86.0044C92.2131 86.0044 87.949 83.291 83.8789 86.0044C82.615 86.8597 81.7327 88.1724 81.4179 89.6656C81.1454 90.8627 81.1475 92.1059 81.424 93.3021C81.7005 94.4983 82.2443 95.6163 83.0145 96.5724C83.0145 96.5724 93.9311 109.427 94.9518 109.198C94.9717 109.194 94.9918 109.189 95.0119 109.184C95.7474 109.007 103.151 96.6209 103.151 96.6209C104.336 94.573 104.821 92.195 104.534 89.8465C104.234 87.5338 103.123 85.0959 99.9658 84.2601C99.9658 84.2601 96.2832 82.7095 92.2131 86.0044Z" fill="black"/>
<path opacity="0.1" d="M65.5791 106.319L66.7742 108.311L69.1643 112.295L69.9611 115.083L68.3677 117.474L70.3594 122.254L71.1562 125.043L69.5628 126.636L72.7496 129.026" fill="black"/>
<path opacity="0.1" d="M124.14 88.7908V91.9779L122.148 97.1567L120.952 99.9453L122.944 103.531L123.741 105.921L126.928 107.116L128.123 109.108V113.888" fill="black"/>
<path opacity="0.1" d="M144.457 91.978L141.27 93.9698C141.27 93.9698 139.676 94.7666 139.676 95.165V98.3519" fill="black"/>
<path opacity="0.1" d="M130.115 80.8236L130.912 84.8073L130.115 87.596" fill="black"/>
<path opacity="0.1" d="M133.302 116.677L130.912 120.262L128.124 122.652V124.246L129.717 126.238V128.628L128.522 131.018" fill="black"/>
<path opacity="0.1" d="M110.595 48.9538H106.612L103.424 51.7423L98.2456 54.5309L95.8554 56.5229V57.3197L90.6766 60.1082L89.0831 62.8968" fill="black"/>
<path opacity="0.1" d="M67.5711 55.726L63.9858 62.8967L62.7907 65.6853L60.0021 69.2707C60.0021 69.2707 58.0102 72.856 57.6118 73.2544C57.2135 73.6528 54.4249 74.4495 54.4249 74.4495L58.4086 78.4332" fill="black"/>
<path opacity="0.1" d="M51.6363 83.2139L50.8395 88.3927L51.6363 91.5798V97.1569L49.2461 107.515L51.6363 110.303L54.4249 113.888" fill="black"/>
<path opacity="0.1" d="M57.6118 85.604L60.0021 86.7992L61.5955 91.978L64.7826 91.1811L66.376 93.9699" fill="black"/>
<path opacity="0.1" d="M101.433 137.392L107.807 136.595L110.595 133.807H114.579" fill="black"/>
<path opacity="0.1" d="M62.7902 129.026L65.1805 131.815L69.1642 133.01L71.953 133.807L72.7496 138.189" fill="black"/>
<path opacity="0.1" d="M109.798 115.482L112.587 113.49L113.782 110.303L116.172 109.905L117.367 105.921" fill="black"/>
<path d="M38.2548 15.3832H44.9249C47.0309 15.3832 49.0506 16.2198 50.5397 17.7089C52.0288 19.198 52.8654 21.2177 52.8654 23.3237V37.9343H30.3143V23.3237C30.3143 22.2809 30.5197 21.2484 30.9187 20.285C31.3177 19.3216 31.9026 18.4462 32.64 17.7089C33.3773 16.9716 34.2527 16.3867 35.2161 15.9876C36.1794 15.5886 37.212 15.3832 38.2548 15.3832Z" fill="#2F2E41"/>
<path d="M45.1029 140.683C45.1029 140.683 44.3937 145.174 43.2118 145.883C42.0299 146.592 49.3577 148.247 49.3577 148.247L50.5396 141.156L45.1029 140.683Z" fill="#FBBEBE"/>
<path d="M53.8488 89.3888L56.449 92.4617L55.2671 103.099L54.3216 124.136C54.3216 124.136 56.2126 142.338 54.3216 142.81C52.4305 143.283 43.9209 143.047 44.1573 141.865C44.3937 140.683 44.63 139.737 45.1028 138.083C45.5756 136.428 44.63 130.519 44.63 130.519L45.8119 123.9L41.5571 95.2983L53.8488 89.3888Z" fill="#2F2E41"/>
<path d="M45.339 145.174C45.339 145.174 42.7389 144.701 42.5025 145.174C42.2661 145.647 37.7749 150.611 37.0658 150.611C36.3566 150.611 31.1563 155.338 36.593 155.575C42.0297 155.811 51.0121 151.556 51.0121 151.556C51.0121 151.556 49.6902 145.541 49.7602 145.83C49.8302 146.12 45.339 146.356 45.339 145.174Z" fill="#2F2E41"/>
<path d="M42.503 134.301C42.503 134.301 49.1216 141.628 49.358 142.337C49.5943 143.047 53.14 142.337 53.14 142.337L54.5583 137.61L53.3764 135.955L46.7578 130.518L42.503 134.301Z" fill="#FBBEBE"/>
<path d="M51.9577 139.737L48.5302 142.963C48.5302 142.963 52.9032 149.665 52.9032 150.374C52.9032 151.083 53.1396 156.993 55.5034 156.047C57.8672 155.102 58.1035 145.647 58.1035 145.647C58.1035 145.647 57.8672 135.955 56.4489 135.246C55.0306 134.537 51.9221 134.761 51.9221 134.761C51.9221 134.761 53.8487 139.501 51.9577 139.737Z" fill="#2F2E41"/>
<path d="M32.3382 68.351C32.3382 68.351 31.1564 72.1331 30.92 73.0786C30.6836 74.0241 29.2653 76.6243 29.2653 80.6427C29.2653 84.6611 29.7381 89.3887 29.2653 89.8615C28.7926 90.3342 21.2285 116.809 24.5378 119.645C27.8471 122.482 38.7205 131.937 39.4296 133.119C40.1387 134.301 40.3751 137.137 41.7934 136.664C43.2116 136.192 48.6483 131.464 48.8847 130.518C49.1211 129.573 45.8118 127.918 45.8118 127.918C45.8118 127.918 39.1932 118.227 37.5386 118.463C35.8839 118.7 36.1203 117.281 36.3567 116.572C36.5931 115.863 37.0658 115.39 36.3567 115.39C35.6475 115.39 36.1203 113.499 36.3567 112.554C36.5931 111.608 42.0298 98.8438 42.0298 98.8438L56.4488 92.4616C56.4488 92.4616 55.7397 75.206 50.5394 70.4784L49.3575 67.6419C49.3575 67.6419 36.1203 66.6964 32.3382 68.351Z" fill="#2F2E41"/>
<path d="M38.2477 31.0034C38.2477 31.0034 39.4296 39.2766 36.593 39.7493C33.7565 40.2221 31.3927 39.9857 31.3927 40.2221C31.3927 40.4585 38.484 47.7862 38.484 47.7862L45.1026 47.3135L51.0121 40.9312C51.0121 40.9312 45.5754 39.9857 45.5754 36.6764C45.5754 33.3671 45.339 31.0034 45.339 31.0034H38.2477Z" fill="#FBBEBE"/>
<path opacity="0.1" d="M38.2477 31.0034C38.2477 31.0034 39.4296 39.2766 36.593 39.7493C33.7565 40.2221 31.3927 39.9857 31.3927 40.2221C31.3927 40.4585 38.484 47.7862 38.484 47.7862L45.1026 47.3135L51.0121 40.9312C51.0121 40.9312 45.5754 39.9857 45.5754 36.6764C45.5754 33.3671 45.339 31.0034 45.339 31.0034H38.2477Z" fill="black"/>
<path d="M41.9118 34.4309C45.9588 34.4309 49.2395 31.1501 49.2395 27.1031C49.2395 23.0562 45.9588 19.7754 41.9118 19.7754C37.8648 19.7754 34.584 23.0562 34.584 27.1031C34.584 31.1501 37.8648 34.4309 41.9118 34.4309Z" fill="#FBBEBE"/>
<path d="M35.4114 39.0402C35.4114 39.0402 26.1926 40.2221 25.4835 43.295C24.7744 46.3679 30.2111 65.5145 30.9202 67.1692C31.6293 68.8238 31.3929 70.0057 31.3929 70.0057C32.4625 69.2058 33.691 68.6442 34.9957 68.3588C36.3005 68.0734 37.6512 68.0708 38.9571 68.3511C43.4482 69.2966 49.8304 68.8238 49.8304 68.8238C49.8304 68.8238 51.9579 60.0778 52.4306 59.1323C52.9034 58.1868 54.7944 52.9865 54.7944 51.5682C54.7944 50.1499 57.6309 44.2405 57.6309 44.2405C57.6309 44.2405 56.2127 39.9857 51.0123 40.2221C51.0123 40.2221 48.744 39.2068 48.1053 39.9508C47.4667 40.6948 43.921 44.0041 39.4298 42.5858C34.9386 41.1676 35.4114 39.0402 35.4114 39.0402Z" fill="#404F64"/>
<path d="M28.0838 43.0587H25.4836L24.0654 61.7326C24.0654 61.7326 29.2657 63.1508 29.9748 62.2053C30.684 61.2598 28.0838 43.0587 28.0838 43.0587Z" fill="#404F64"/>
<path d="M53.1397 43.0587L57.6309 44.2406C57.6309 44.2406 60.9402 56.2959 61.1766 56.5322C61.4129 56.7686 61.6493 58.1869 61.6493 58.1869C61.6493 58.1869 61.6493 58.4233 62.1221 59.1324C62.5948 59.8415 63.304 59.3688 62.8312 60.3143C62.3585 61.2598 61.6493 60.787 62.1221 61.7326C62.5948 62.6781 62.3585 65.2782 62.3585 65.2782C62.3585 65.2782 61.1766 60.787 56.9218 61.9689L54.0852 49.2045L53.1397 43.0587Z" fill="#404F64"/>
<path d="M47.6329 25.321H36.247L33.6693 19.3964H49.5662L47.6329 25.321Z" fill="#2F2E41"/>
<path d="M34.7533 29.656C35.0574 29.5679 35.1135 28.839 34.8784 28.028C34.6434 27.217 34.2064 26.631 33.9022 26.7191C33.5981 26.8072 33.5421 27.5361 33.7771 28.3471C34.0121 29.1582 34.4492 29.7442 34.7533 29.656Z" fill="#FFB9B9"/>
<path d="M50.1571 28.3472C50.3921 27.5362 50.3361 26.8073 50.032 26.7192C49.7278 26.6311 49.2908 27.2171 49.0558 28.0281C48.8208 28.8391 48.8768 29.568 49.1809 29.6562C49.4851 29.7443 49.9221 29.1583 50.1571 28.3472Z" fill="#FFB9B9"/>
<path d="M48.2212 59.5858C50.571 59.5858 52.476 57.6808 52.476 55.331C52.476 52.9811 50.571 51.0762 48.2212 51.0762C45.8713 51.0762 43.9664 52.9811 43.9664 55.331C43.9664 57.6808 45.8713 59.5858 48.2212 59.5858Z" fill="#3F3D56"/>
<path opacity="0.1" d="M48.2212 59.5858C50.571 59.5858 52.476 57.6808 52.476 55.331C52.476 52.9811 50.571 51.0762 48.2212 51.0762C45.8713 51.0762 43.9664 52.9811 43.9664 55.331C43.9664 57.6808 45.8713 59.5858 48.2212 59.5858Z" fill="black"/>
<path d="M48.2214 59.1639C50.3382 59.1639 52.0542 57.4478 52.0542 55.331C52.0542 53.2142 50.3382 51.4982 48.2214 51.4982C46.1046 51.4982 44.3885 53.2142 44.3885 55.331C44.3885 57.4478 46.1046 59.1639 48.2214 59.1639Z" fill="#3F3D56"/>
<path opacity="0.1" d="M48.0521 53.1643C48.0521 53.1643 47.0755 52.5428 46.1433 53.1643C45.8539 53.3601 45.6518 53.6608 45.5797 54.0027C45.5173 54.2769 45.5178 54.5616 45.5811 54.8356C45.6444 55.1095 45.769 55.3656 45.9454 55.5846L48.0542 58.2484C48.1265 58.3412 48.2235 58.4117 48.334 58.452C48.4446 58.4923 48.5642 58.5007 48.6793 58.4761L48.6931 58.4729C48.7764 58.4524 48.8547 58.4151 48.923 58.3632C48.9914 58.3113 49.0484 58.246 49.0905 58.1712L50.5571 55.5957C50.8284 55.1267 50.9396 54.582 50.8739 54.0442C50.8588 53.7472 50.7491 53.4628 50.5609 53.2326C50.3727 53.0024 50.1157 52.8385 49.8276 52.7648C49.8276 52.7648 48.9842 52.4096 48.0521 53.1643Z" fill="black"/>
<path d="M48.062 53.3143C48.062 53.3143 47.1459 52.7313 46.2715 53.3143C46 53.498 45.8104 53.7801 45.7428 54.1009C45.6843 54.358 45.6847 54.6251 45.7441 54.8821C45.8035 55.1391 45.9203 55.3793 46.0858 55.5847L48.064 58.0835C48.1319 58.1706 48.2228 58.2368 48.3265 58.2746C48.4302 58.3124 48.5425 58.3202 48.6504 58.2972L48.6633 58.2942C48.7415 58.275 48.8149 58.2399 48.879 58.1913C48.9431 58.1426 48.9966 58.0813 49.0361 58.0112L50.4119 55.5952C50.6664 55.1552 50.7708 54.6443 50.7091 54.1397C50.695 53.8612 50.5921 53.5944 50.4155 53.3785C50.2389 53.1625 49.9979 53.0087 49.7276 52.9395C49.7276 52.9395 48.9365 52.6064 48.062 53.3143Z" fill="#007AFF"/>
<path opacity="0.1" d="M48.0975 54.314C47.9662 54.2345 47.8155 54.1924 47.6619 54.1924C47.5084 54.1924 47.3577 54.2345 47.2264 54.314C47.0943 54.4034 47.002 54.5406 46.9691 54.6967C46.9407 54.8218 46.9409 54.9518 46.9698 55.0768C46.9987 55.2019 47.0555 55.3187 47.136 55.4187C47.136 55.4187 48.2771 56.7622 48.3838 56.7384L48.3901 56.7369C48.4669 56.7184 49.2408 55.4237 49.2408 55.4237C49.3646 55.2097 49.4154 54.9611 49.3854 54.7156C49.3785 54.5801 49.3284 54.4503 49.2425 54.3452C49.1566 54.2402 49.0393 54.1654 48.9079 54.1317C48.7687 54.088 48.6205 54.0819 48.4782 54.1139C48.3359 54.1459 48.2046 54.215 48.0975 54.314Z" fill="black"/>
<path d="M44.439 61.9498C46.7889 61.9498 48.6938 60.0449 48.6938 57.695C48.6938 55.3451 46.7889 53.4402 44.439 53.4402C42.0891 53.4402 40.1842 55.3451 40.1842 57.695C40.1842 60.0449 42.0891 61.9498 44.439 61.9498Z" fill="#3F3D56"/>
<path opacity="0.1" d="M44.439 61.9498C46.7889 61.9498 48.6938 60.0449 48.6938 57.695C48.6938 55.3451 46.7889 53.4402 44.439 53.4402C42.0891 53.4402 40.1842 55.3451 40.1842 57.695C40.1842 60.0449 42.0891 61.9498 44.439 61.9498Z" fill="black"/>
<path d="M44.4393 61.5277C46.5561 61.5277 48.2721 59.8116 48.2721 57.6948C48.2721 55.578 46.5561 53.862 44.4393 53.862C42.3225 53.862 40.6064 55.578 40.6064 57.6948C40.6064 59.8116 42.3225 61.5277 44.4393 61.5277Z" fill="#3F3D56"/>
<path opacity="0.1" d="M44.2699 55.5283C44.2699 55.5283 43.2933 54.9068 42.3612 55.5283C42.0717 55.7241 41.8696 56.0248 41.7976 56.3668C41.7351 56.6409 41.7356 56.9257 41.799 57.1996C41.8623 57.4736 41.9868 57.7296 42.1632 57.9486L44.272 60.6124C44.3444 60.7052 44.4413 60.7757 44.5519 60.816C44.6624 60.8563 44.7821 60.8647 44.8971 60.8402L44.9109 60.837C44.9942 60.8164 45.0725 60.7791 45.1408 60.7272C45.2092 60.6753 45.2662 60.61 45.3083 60.5352L46.7749 57.9597C47.0463 57.4907 47.1575 56.946 47.0918 56.4082C47.0767 56.1112 46.967 55.8268 46.7787 55.5966C46.5905 55.3665 46.3335 55.2025 46.0455 55.1288C46.0455 55.1288 45.2021 54.7737 44.2699 55.5283Z" fill="black"/>
<path d="M44.2799 55.6781C44.2799 55.6781 43.3638 55.0951 42.4893 55.6781C42.2178 55.8618 42.0283 56.1439 41.9606 56.4647C41.9021 56.7218 41.9025 56.9889 41.9619 57.2459C42.0213 57.5029 42.1382 57.7431 42.3036 57.9485L44.2819 60.4473C44.3497 60.5344 44.4407 60.6006 44.5444 60.6384C44.6481 60.6762 44.7603 60.684 44.8682 60.661L44.8812 60.658C44.9593 60.6388 45.0328 60.6037 45.0969 60.5551C45.161 60.5064 45.2144 60.4451 45.254 60.375L46.6298 57.959C46.8843 57.519 46.9886 57.0081 46.927 56.5035C46.9128 56.225 46.8099 55.9582 46.6333 55.7423C46.4567 55.5263 46.2157 55.3725 45.9455 55.3033C45.9455 55.3033 45.1543 54.9702 44.2799 55.6781Z" fill="#007AFF"/>
<path opacity="0.1" d="M44.3158 56.6776C44.1844 56.5981 44.0338 56.556 43.8802 56.556C43.7266 56.556 43.576 56.5981 43.4446 56.6776C43.3125 56.767 43.2203 56.9042 43.1874 57.0603C43.1589 57.1854 43.1591 57.3154 43.188 57.4404C43.2169 57.5654 43.2738 57.6823 43.3543 57.7822C43.3543 57.7822 44.4953 59.1258 44.602 59.1019L44.6083 59.1005C44.6852 59.082 45.459 57.7873 45.459 57.7873C45.5829 57.5733 45.6336 57.3247 45.6036 57.0792C45.5968 56.9437 45.5467 56.8139 45.4608 56.7088C45.3749 56.6038 45.2576 56.5289 45.1261 56.4953C44.987 56.4516 44.8387 56.4455 44.6964 56.4775C44.5541 56.5095 44.4228 56.5786 44.3158 56.6776Z" fill="black"/>
<path d="M41.1944 47.0574C41.0908 46.8865 40.7289 46.8909 40.7289 46.8909C40.3993 47.3806 39.6071 46.8604 39.6071 46.8604C39.0187 47.1237 38.6597 46.2848 38.6597 46.2848C37.868 46.1664 37.9903 45.3349 37.9903 45.3349C37.5964 45.2558 37.7069 44.5437 37.7069 44.5437C37.7069 44.5437 37.9255 44.3644 37.8179 44.2333C37.7538 44.0799 37.7308 43.9123 37.7513 43.7473C36.5781 43.3902 35.3185 43.4405 34.1776 43.8901C33.0366 44.3397 32.0812 45.162 31.4669 46.2234C30.8526 47.2848 30.6154 48.5228 30.794 49.7361C30.9726 50.9494 31.5563 52.0666 32.4504 52.906C33.3445 53.7454 34.4962 54.2577 35.7184 54.3594C36.9405 54.4612 38.1611 54.1465 39.1817 53.4666C40.2023 52.7866 40.9628 51.7813 41.3396 50.6143C41.7164 49.4473 41.6873 48.1871 41.257 47.0387C41.2291 47.0702 41.2074 47.0788 41.1944 47.0574Z" fill="#3F3D56"/>
<path opacity="0.1" d="M41.1944 47.0574C41.0908 46.8865 40.7289 46.8909 40.7289 46.8909C40.3993 47.3806 39.6071 46.8604 39.6071 46.8604C39.0187 47.1237 38.6597 46.2848 38.6597 46.2848C37.868 46.1664 37.9903 45.3349 37.9903 45.3349C37.5964 45.2558 37.7069 44.5437 37.7069 44.5437C37.7069 44.5437 37.9255 44.3644 37.8179 44.2333C37.7538 44.0799 37.7308 43.9123 37.7513 43.7473C36.5781 43.3902 35.3185 43.4405 34.1776 43.8901C33.0366 44.3397 32.0812 45.162 31.4669 46.2234C30.8526 47.2848 30.6154 48.5228 30.794 49.7361C30.9726 50.9494 31.5563 52.0666 32.4504 52.906C33.3445 53.7454 34.4962 54.2577 35.7184 54.3594C36.9405 54.4612 38.1611 54.1465 39.1817 53.4666C40.2023 52.7866 40.9628 51.7813 41.3396 50.6143C41.7164 49.4473 41.6873 48.1871 41.257 47.0387C41.2291 47.0702 41.2074 47.0788 41.1944 47.0574Z" fill="black"/>
<path d="M40.8725 47.0361C40.774 46.8736 40.4297 46.8778 40.4297 46.8778C40.1163 47.3435 39.3629 46.8488 39.3629 46.8488C38.8033 47.0991 38.4618 46.3013 38.4618 46.3013C37.7089 46.1887 37.8252 45.398 37.8252 45.398C37.4506 45.3227 37.5557 44.6455 37.5557 44.6455C37.5557 44.6455 37.7636 44.475 37.6613 44.3503C37.6003 44.2043 37.5784 44.045 37.5979 43.8881C36.4821 43.5484 35.2842 43.5963 34.1991 44.0239C33.114 44.4514 32.2054 45.2335 31.6211 46.243C31.0369 47.2524 30.8113 48.4298 30.9812 49.5837C31.151 50.7376 31.7062 51.8001 32.5565 52.5985C33.4068 53.3968 34.5022 53.8839 35.6645 53.9807C36.8268 54.0775 37.9877 53.7782 38.9583 53.1316C39.9289 52.4849 40.6522 51.5288 41.0106 50.4189C41.3689 49.309 41.3412 48.1105 40.932 47.0183C40.9054 47.0483 40.8849 47.0565 40.8725 47.0361Z" fill="#3F3D56"/>
<path d="M35.4722 46.7209C35.4722 46.7209 34.5806 46.1535 33.7295 46.7209C33.4652 46.8997 33.2807 47.1742 33.2149 47.4864C33.1579 47.7368 33.1584 47.9967 33.2162 48.2469C33.274 48.497 33.3877 48.7308 33.5488 48.9307L35.4742 51.3629C35.5402 51.4476 35.6288 51.512 35.7297 51.5488C35.8306 51.5856 35.9399 51.5932 36.0449 51.5708L36.0575 51.5679C36.1336 51.5492 36.205 51.5151 36.2674 51.4677C36.3298 51.4203 36.3819 51.3607 36.4204 51.2924L37.7594 48.9409C38.0072 48.5126 38.1087 48.0154 38.0487 47.5243C38.0349 47.2531 37.9348 46.9935 37.7629 46.7833C37.591 46.5731 37.3564 46.4235 37.0934 46.3561C37.0934 46.3561 36.3233 46.0319 35.4722 46.7209Z" fill="#007AFF"/>
<path opacity="0.1" d="M35.4722 46.7209C35.4722 46.7209 34.5806 46.1535 33.7295 46.7209C33.4652 46.8997 33.2807 47.1742 33.2149 47.4864C33.1579 47.7368 33.1584 47.9967 33.2162 48.2469C33.274 48.497 33.3877 48.7308 33.5488 48.9307L35.4742 51.3629C35.5402 51.4476 35.6288 51.512 35.7297 51.5488C35.8306 51.5856 35.9399 51.5932 36.0449 51.5708L36.0575 51.5679C36.1336 51.5492 36.205 51.5151 36.2674 51.4677C36.3298 51.4203 36.3819 51.3607 36.4204 51.2924L37.7594 48.9409C38.0072 48.5126 38.1087 48.0154 38.0487 47.5243C38.0349 47.2531 37.9348 46.9935 37.7629 46.7833C37.591 46.5731 37.3564 46.4235 37.0934 46.3561C37.0934 46.3561 36.3233 46.0319 35.4722 46.7209Z" fill="black"/>
<path d="M35.4817 46.8579C35.4817 46.8579 34.6453 46.3257 33.8469 46.8579C33.599 47.0257 33.4259 47.2832 33.3641 47.5761C33.3107 47.8109 33.3111 48.0548 33.3653 48.2894C33.4196 48.5241 33.5262 48.7434 33.6773 48.9309L35.4835 51.2124C35.5454 51.2919 35.6285 51.3524 35.7232 51.3869C35.8179 51.4214 35.9203 51.4285 36.0189 51.4075L36.0307 51.4048C36.1021 51.3872 36.1691 51.3552 36.2276 51.3108C36.2862 51.2663 36.335 51.2104 36.3711 51.1463L37.6272 48.9404C37.8596 48.5387 37.9549 48.0723 37.8986 47.6116C37.8857 47.3572 37.7917 47.1137 37.6305 46.9165C37.4692 46.7194 37.2492 46.5789 37.0024 46.5158C37.0024 46.5158 36.2801 46.2116 35.4817 46.8579Z" fill="#007AFF"/>
<path opacity="0.1" d="M35.5143 47.7706C35.3943 47.6979 35.2568 47.6595 35.1166 47.6595C34.9764 47.6595 34.8388 47.6979 34.7189 47.7706C34.5983 47.8522 34.5141 47.9775 34.484 48.12C34.458 48.2342 34.4582 48.3529 34.4846 48.467C34.511 48.5812 34.5629 48.6879 34.6364 48.7791C34.6364 48.7791 35.6782 50.0059 35.7756 49.9841L35.7814 49.9827C36.061 49.5969 36.3203 49.1967 36.5581 48.7838C36.6712 48.5883 36.7175 48.3614 36.6901 48.1373C36.6838 48.0135 36.6381 47.895 36.5597 47.7991C36.4812 47.7032 36.3742 47.6348 36.2541 47.6041C36.1271 47.5642 35.9917 47.5586 35.8618 47.5879C35.7319 47.6171 35.612 47.6801 35.5143 47.7706Z" fill="black"/>
<path opacity="0.1" d="M32.9728 49.7092L33.0867 49.8992L33.3148 50.2793L33.3909 50.5455L33.2387 50.7736L33.429 51.2298L33.5049 51.4959L33.3529 51.6482L33.6571 51.8763" fill="black"/>
<path opacity="0.1" d="M38.5611 48.0364V48.3407L38.3711 48.8349L38.2569 49.1009L38.4469 49.4431L38.5231 49.6712L38.8273 49.7852L38.9412 49.9754V50.4317" fill="black"/>
<path opacity="0.1" d="M40.5 48.3404L40.1958 48.5305C40.1958 48.5305 40.0438 48.6065 40.0438 48.6445V48.9487" fill="black"/>
<path opacity="0.1" d="M39.1312 47.276L39.2073 47.6561L39.1312 47.9223" fill="black"/>
<path opacity="0.1" d="M39.4354 50.6978L39.2073 51.0399L38.9412 51.268V51.4202L39.0934 51.6102V51.8383L38.9792 52.0664" fill="black"/>
<path opacity="0.1" d="M37.2682 44.2345H36.8881L36.5838 44.5007L36.0896 44.7669L35.8615 44.9569V45.033L35.3672 45.2989L35.2152 45.5651" fill="black"/>
<path opacity="0.1" d="M33.1621 44.8809L32.82 45.5652L32.7059 45.8313L32.4398 46.1735C32.4398 46.1735 32.2497 46.5157 32.2117 46.5537C32.1145 46.6022 32.0126 46.6404 31.9075 46.6677L32.2877 47.0479" fill="black"/>
<path opacity="0.1" d="M31.6414 47.504L31.5653 47.9983L31.6414 48.3025V48.8348L31.4133 49.8231L31.6414 50.0893L31.9076 50.4316" fill="black"/>
<path opacity="0.1" d="M32.2117 47.7323L32.4398 47.8464L32.5918 48.3407L32.896 48.2646L33.048 48.5308" fill="black"/>
<path opacity="0.1" d="M36.3937 52.6746L37.0019 52.5987L37.268 52.3326H37.6484" fill="black"/>
<path opacity="0.1" d="M32.7059 51.8763L32.934 52.1425L33.3141 52.2564L33.5803 52.3325L33.6564 52.7507" fill="black"/>
<path opacity="0.1" d="M37.1925 50.5836L37.4587 50.3936L37.5726 50.0894L37.8007 50.0513L37.9149 49.6712" fill="black"/>
<path d="M24.7742 59.8415L24.0651 61.7326C24.0651 61.7326 23.5923 67.8784 26.4289 67.642C29.2654 67.4056 30.92 63.86 30.92 63.86C30.92 63.86 29.2654 59.3688 27.3744 59.8415C25.4833 60.3143 24.7742 59.8415 24.7742 59.8415Z" fill="#404F64"/>
<path d="M27.1382 61.0234C27.1382 61.0234 25.72 65.2782 27.3746 65.2782C29.0293 65.2782 32.1022 62.678 32.3386 60.5506C32.5749 58.4232 36.8298 50.3864 33.7568 51.0955C30.6839 51.8046 29.2656 57.7141 29.2656 57.7141L27.1382 61.0234Z" fill="#FBBEBE"/>
<path d="M60.94 61.2597L62.4167 63.7275C62.4167 63.7275 63.0674 68.351 59.7581 68.351C56.4488 68.351 51.7213 63.8598 51.7213 63.8598C51.7213 63.8598 49.3575 62.9143 47.9392 63.1507C46.521 63.3871 38.7205 63.1507 42.0298 59.1323C45.3391 55.1139 51.0121 59.1323 51.0121 59.1323L56.9216 61.9688L59.9945 60.3142L60.94 61.2597Z" fill="#FBBEBE"/>
<path d="M58.931 58.0686L56.5672 61.8507C56.5672 61.8507 62.0039 62.5598 62.4767 63.7417C62.9494 64.9236 60.3493 57.5959 60.3493 57.5959L58.931 58.0686Z" fill="#404F64"/>
</g>
<defs>
<clipPath id="clip0_1_104">
<rect width="191.466" height="160.047" fill="white"/>
</clipPath>
</defs>
</svg>
