<svg width="40" height="40" viewBox="0 0 40 40" fill="none" xmlns="http://www.w3.org/2000/svg">
<rect width="40" height="40" rx="8" fill="#3A3A5F"/>
<path d="M17 11V13V11ZM23 11V13V11ZM17 27V29V27ZM23 27V29V27ZM13 17H11H13ZM13 23H11H13ZM29 17H27H29ZM29 23H27H29ZM15 27H25C25.5304 27 26.0391 26.7893 26.4142 26.4142C26.7893 26.0391 27 25.5304 27 25V15C27 14.4696 26.7893 13.9609 26.4142 13.5858C26.0391 13.2107 25.5304 13 25 13H15C14.4696 13 13.9609 13.2107 13.5858 13.5858C13.2107 13.9609 13 14.4696 13 15V25C13 25.5304 13.2107 26.0391 13.5858 26.4142C13.9609 26.7893 14.4696 27 15 27ZM17 17H23V23H17V17Z" stroke="white" stroke-width="2" stroke-linecap="round" stroke-linejoin="round"/>
</svg>
