<svg width="38" height="30" viewBox="0 0 38 30" fill="none" xmlns="http://www.w3.org/2000/svg">
    <g filter="url(#filter0_d_860_1295)">
        <mask id="mask0_860_1295" style="mask-type:alpha" maskUnits="userSpaceOnUse" x="3" y="1" width="32" height="24">
            <rect x="3" y="1" width="32" height="24" fill="white" />
        </mask>
        <g mask="url(#mask0_860_1295)">
            <path fill-rule="evenodd" clip-rule="evenodd" d="M3 1V25H35V1H3Z" fill="#2E42A5" />
            <mask id="mask1_860_1295" style="mask-type:alpha" maskUnits="userSpaceOnUse" x="3" y="1" width="32"
                height="24">
                <path fill-rule="evenodd" clip-rule="evenodd" d="M3 1V25H35V1H3Z" fill="white" />
            </mask>
            <g mask="url(#mask1_860_1295)">
                <mask id="mask2_860_1295" style="mask-type:alpha" maskUnits="userSpaceOnUse" x="3" y="1" width="32"
                    height="24">
                    <rect x="3" y="1" width="32" height="24" fill="white" />
                </mask>
                <g mask="url(#mask2_860_1295)">
                    <path
                        d="M-0.563232 23.2854L6.47846 26.2635L35.1597 4.23787L38.874 -0.187613L31.344 -1.18297L19.6456 8.3085L10.2296 14.7035L-0.563232 23.2854Z"
                        fill="white" />
                    <path d="M0.400757 25.3719L3.98817 27.1002L37.5402 -0.598782H32.5031L0.400757 25.3719Z"
                        fill="#F50100" />
                    <path
                        d="M38.5631 23.2854L31.5214 26.2635L2.84018 4.23787L-0.874146 -0.187613L6.65593 -1.18297L18.3543 8.3085L27.7703 14.7035L38.5631 23.2854Z"
                        fill="white" />
                    <path
                        d="M38.3229 24.7829L34.7355 26.5111L20.4487 14.6518L16.2129 13.3267L-1.23151 -0.172462H3.80564L21.2403 13.0063L25.8713 14.5952L38.3229 24.7829Z"
                        fill="#F50100" />
                    <mask id="path-10-inside-1_860_1295" fill="white">
                        <path fill-rule="evenodd" clip-rule="evenodd"
                            d="M22.7777 -1H15.2222V9H1.02747V17H15.2222V27H22.7777V17H37.0275V9H22.7777V-1Z" />
                    </mask>
                    <path fill-rule="evenodd" clip-rule="evenodd"
                        d="M22.7777 -1H15.2222V9H1.02747V17H15.2222V27H22.7777V17H37.0275V9H22.7777V-1Z"
                        fill="#F50100" />
                    <path
                        d="M15.2222 -1V-3H13.2222V-1H15.2222ZM22.7777 -1H24.7777V-3H22.7777V-1ZM15.2222 9V11H17.2222V9H15.2222ZM1.02747 9V7H-0.972534V9H1.02747ZM1.02747 17H-0.972534V19H1.02747V17ZM15.2222 17H17.2222V15H15.2222V17ZM15.2222 27H13.2222V29H15.2222V27ZM22.7777 27V29H24.7777V27H22.7777ZM22.7777 17V15H20.7777V17H22.7777ZM37.0275 17V19H39.0275V17H37.0275ZM37.0275 9H39.0275V7H37.0275V9ZM22.7777 9H20.7777V11H22.7777V9ZM15.2222 1H22.7777V-3H15.2222V1ZM17.2222 9V-1H13.2222V9H17.2222ZM1.02747 11H15.2222V7H1.02747V11ZM3.02747 17V9H-0.972534V17H3.02747ZM15.2222 15H1.02747V19H15.2222V15ZM17.2222 27V17H13.2222V27H17.2222ZM22.7777 25H15.2222V29H22.7777V25ZM20.7777 17V27H24.7777V17H20.7777ZM37.0275 15H22.7777V19H37.0275V15ZM35.0275 9V17H39.0275V9H35.0275ZM22.7777 11H37.0275V7H22.7777V11ZM20.7777 -1V9H24.7777V-1H20.7777Z"
                        fill="white" mask="url(#path-10-inside-1_860_1295)" />
                </g>
            </g>
        </g>
        <rect x="3" y="1" width="32" height="24" fill="url(#paint0_linear_860_1295)" style="mix-blend-mode:overlay" />
    </g>
    <defs>
        <filter id="filter0_d_860_1295" x="0" y="0" width="38" height="30" filterUnits="userSpaceOnUse"
            color-interpolation-filters="sRGB">
            <feFlood flood-opacity="0" result="BackgroundImageFix" />
            <feColorMatrix in="SourceAlpha" type="matrix" values="0 0 0 0 0 0 0 0 0 0 0 0 0 0 0 0 0 0 127 0"
                result="hardAlpha" />
            <feOffset dy="2" />
            <feGaussianBlur stdDeviation="1.5" />
            <feColorMatrix type="matrix" values="0 0 0 0 0 0 0 0 0 0 0 0 0 0 0 0 0 0 0.1 0" />
            <feBlend mode="normal" in2="BackgroundImageFix" result="effect1_dropShadow_860_1295" />
            <feBlend mode="normal" in="SourceGraphic" in2="effect1_dropShadow_860_1295" result="shape" />
        </filter>
        <linearGradient id="paint0_linear_860_1295" x1="35" y1="1" x2="3" y2="25" gradientUnits="userSpaceOnUse">
            <stop stop-color="white" stop-opacity="0.3" />
            <stop offset="0.262741" stop-opacity="0.27" />
            <stop offset="0.369956" stop-color="white" stop-opacity="0.26" />
            <stop offset="0.487001" stop-opacity="0.55" />
            <stop offset="0.594445" stop-opacity="0.24" />
            <stop offset="0.736408" stop-color="white" stop-opacity="0.3" />
            <stop offset="0.901459" stop-color="#272727" stop-opacity="0.22" />
            <stop offset="1" stop-opacity="0.2" />
        </linearGradient>
    </defs>
</svg>